# Cylinder - Size: (2.0, 1.0, 2.0), Centered: False
o cylinder
mtllib ironcylinder.mtl
v 2.000000 0.000000 1.000000
v 2.000000 1.000000 1.000000
v 1.980785 0.000000 1.195090
v 1.980785 1.000000 1.195090
v 1.923880 0.000000 1.382683
v 1.923880 1.000000 1.382683
v 1.831470 0.000000 1.555570
v 1.831470 1.000000 1.555570
v 1.707107 0.000000 1.707107
v 1.707107 1.000000 1.707107
v 1.555570 0.000000 1.831470
v 1.555570 1.000000 1.831470
v 1.382683 0.000000 1.923880
v 1.382683 1.000000 1.923880
v 1.195090 0.000000 1.980785
v 1.195090 1.000000 1.980785
v 1.000000 0.000000 2.000000
v 1.000000 1.000000 2.000000
v 0.804910 0.000000 1.980785
v 0.804910 1.000000 1.980785
v 0.617317 0.000000 1.923880
v 0.617317 1.000000 1.923880
v 0.444430 0.000000 1.831470
v 0.444430 1.000000 1.831470
v 0.292893 0.000000 1.707107
v 0.292893 1.000000 1.707107
v 0.168530 0.000000 1.555570
v 0.168530 1.000000 1.555570
v 0.076120 0.000000 1.382683
v 0.076120 1.000000 1.382683
v 0.019215 0.000000 1.195090
v 0.019215 1.000000 1.195090
v 0.000000 0.000000 1.000000
v 0.000000 1.000000 1.000000
v 0.019215 0.000000 0.804910
v 0.019215 1.000000 0.804910
v 0.076120 0.000000 0.617317
v 0.076120 1.000000 0.617317
v 0.168530 0.000000 0.444430
v 0.168530 1.000000 0.444430
v 0.292893 0.000000 0.292893
v 0.292893 1.000000 0.292893
v 0.444430 0.000000 0.168530
v 0.444430 1.000000 0.168530
v 0.617317 0.000000 0.076120
v 0.617317 1.000000 0.076120
v 0.804910 0.000000 0.019215
v 0.804910 1.000000 0.019215
v 1.000000 0.000000 0.000000
v 1.000000 1.000000 0.000000
v 1.195090 0.000000 0.019215
v 1.195090 1.000000 0.019215
v 1.382683 0.000000 0.076120
v 1.382683 1.000000 0.076120
v 1.555570 0.000000 0.168530
v 1.555570 1.000000 0.168530
v 1.707107 0.000000 0.292893
v 1.707107 1.000000 0.292893
v 1.831470 0.000000 0.444430
v 1.831470 1.000000 0.444430
v 1.923880 0.000000 0.617317
v 1.923880 1.000000 0.617317
v 1.980785 0.000000 0.804910
v 1.980785 1.000000 0.804910
v 2.000000 0.000000 1.000000
v 2.000000 1.000000 1.000000
v 1.000000 0.000000 1.000000
v 2.000000 0.000000 1.000000
v 1.980785 0.000000 1.195090
v 1.923880 0.000000 1.382683
v 1.831470 0.000000 1.555570
v 1.707107 0.000000 1.707107
v 1.555570 0.000000 1.831470
v 1.382683 0.000000 1.923880
v 1.195090 0.000000 1.980785
v 1.000000 0.000000 2.000000
v 0.804910 0.000000 1.980785
v 0.617317 0.000000 1.923880
v 0.444430 0.000000 1.831470
v 0.292893 0.000000 1.707107
v 0.168530 0.000000 1.555570
v 0.076120 0.000000 1.382683
v 0.019215 0.000000 1.195090
v 0.000000 0.000000 1.000000
v 0.019215 0.000000 0.804910
v 0.076120 0.000000 0.617317
v 0.168530 0.000000 0.444430
v 0.292893 0.000000 0.292893
v 0.444430 0.000000 0.168530
v 0.617317 0.000000 0.076120
v 0.804910 0.000000 0.019215
v 1.000000 0.000000 0.000000
v 1.195090 0.000000 0.019215
v 1.382683 0.000000 0.076120
v 1.555570 0.000000 0.168530
v 1.707107 0.000000 0.292893
v 1.831470 0.000000 0.444430
v 1.923880 0.000000 0.617317
v 1.980785 0.000000 0.804910
v 1.000000 1.000000 1.000000
v 2.000000 1.000000 1.000000
v 1.980785 1.000000 1.195090
v 1.923880 1.000000 1.382683
v 1.831470 1.000000 1.555570
v 1.707107 1.000000 1.707107
v 1.555570 1.000000 1.831470
v 1.382683 1.000000 1.923880
v 1.195090 1.000000 1.980785
v 1.000000 1.000000 2.000000
v 0.804910 1.000000 1.980785
v 0.617317 1.000000 1.923880
v 0.444430 1.000000 1.831470
v 0.292893 1.000000 1.707107
v 0.168530 1.000000 1.555570
v 0.076120 1.000000 1.382683
v 0.019215 1.000000 1.195090
v 0.000000 1.000000 1.000000
v 0.019215 1.000000 0.804910
v 0.076120 1.000000 0.617317
v 0.168530 1.000000 0.444430
v 0.292893 1.000000 0.292893
v 0.444430 1.000000 0.168530
v 0.617317 1.000000 0.076120
v 0.804910 1.000000 0.019215
v 1.000000 1.000000 0.000000
v 1.195090 1.000000 0.019215
v 1.382683 1.000000 0.076120
v 1.555570 1.000000 0.168530
v 1.707107 1.000000 0.292893
v 1.831470 1.000000 0.444430
v 1.923880 1.000000 0.617317
v 1.980785 1.000000 0.804910
vt 0.000000 0.000000
vt 0.000000 1.000000
vt 0.031250 0.000000
vt 0.031250 1.000000
vt 0.062500 0.000000
vt 0.062500 1.000000
vt 0.093750 0.000000
vt 0.093750 1.000000
vt 0.125000 0.000000
vt 0.125000 1.000000
vt 0.156250 0.000000
vt 0.156250 1.000000
vt 0.187500 0.000000
vt 0.187500 1.000000
vt 0.218750 0.000000
vt 0.218750 1.000000
vt 0.250000 0.000000
vt 0.250000 1.000000
vt 0.281250 0.000000
vt 0.281250 1.000000
vt 0.312500 0.000000
vt 0.312500 1.000000
vt 0.343750 0.000000
vt 0.343750 1.000000
vt 0.375000 0.000000
vt 0.375000 1.000000
vt 0.406250 0.000000
vt 0.406250 1.000000
vt 0.437500 0.000000
vt 0.437500 1.000000
vt 0.468750 0.000000
vt 0.468750 1.000000
vt 0.500000 0.000000
vt 0.500000 1.000000
vt 0.531250 0.000000
vt 0.531250 1.000000
vt 0.562500 0.000000
vt 0.562500 1.000000
vt 0.593750 0.000000
vt 0.593750 1.000000
vt 0.625000 0.000000
vt 0.625000 1.000000
vt 0.656250 0.000000
vt 0.656250 1.000000
vt 0.687500 0.000000
vt 0.687500 1.000000
vt 0.718750 0.000000
vt 0.718750 1.000000
vt 0.750000 0.000000
vt 0.750000 1.000000
vt 0.781250 0.000000
vt 0.781250 1.000000
vt 0.812500 0.000000
vt 0.812500 1.000000
vt 0.843750 0.000000
vt 0.843750 1.000000
vt 0.875000 0.000000
vt 0.875000 1.000000
vt 0.906250 0.000000
vt 0.906250 1.000000
vt 0.937500 0.000000
vt 0.937500 1.000000
vt 0.968750 0.000000
vt 0.968750 1.000000
vt 1.000000 0.000000
vt 1.000000 1.000000
vt 0.500000 0.500000
vt 1.000000 0.500000
vt 1.000000 0.599456
vt 1.000000 0.707107
vt 1.000000 0.834089
vt 1.000000 1.000000
vt 0.834089 1.000000
vt 0.707107 1.000000
vt 0.599456 1.000000
vt 0.500000 1.000000
vt 0.400544 1.000000
vt 0.292893 1.000000
vt 0.165911 1.000000
vt 0.000000 1.000000
vt 0.000000 0.834089
vt 0.000000 0.707107
vt 0.000000 0.599456
vt 0.000000 0.500000
vt 0.000000 0.400544
vt 0.000000 0.292893
vt 0.000000 0.165911
vt 0.000000 0.000000
vt 0.165911 0.000000
vt 0.292893 0.000000
vt 0.400544 0.000000
vt 0.500000 0.000000
vt 0.599456 0.000000
vt 0.707107 0.000000
vt 0.834089 0.000000
vt 1.000000 0.000000
vt 1.000000 0.165911
vt 1.000000 0.292893
vt 1.000000 0.400544
vt 0.500000 0.500000
vt 1.000000 0.500000
vt 1.000000 0.599456
vt 1.000000 0.707107
vt 1.000000 0.834089
vt 1.000000 1.000000
vt 0.834089 1.000000
vt 0.707107 1.000000
vt 0.599456 1.000000
vt 0.500000 1.000000
vt 0.400544 1.000000
vt 0.292893 1.000000
vt 0.165911 1.000000
vt 0.000000 1.000000
vt 0.000000 0.834089
vt 0.000000 0.707107
vt 0.000000 0.599456
vt 0.000000 0.500000
vt 0.000000 0.400544
vt 0.000000 0.292893
vt 0.000000 0.165911
vt 0.000000 0.000000
vt 0.165911 0.000000
vt 0.292893 0.000000
vt 0.400544 0.000000
vt 0.500000 0.000000
vt 0.599456 0.000000
vt 0.707107 0.000000
vt 0.834089 0.000000
vt 1.000000 0.000000
vt 1.000000 0.165911
vt 1.000000 0.292893
vt 1.000000 0.400544
vn 1.0000 0.0000 0.0000
vn 1.0000 0.0000 0.0000
vn 0.9808 0.0000 0.1951
vn 0.9808 0.0000 0.1951
vn 0.9239 0.0000 0.3827
vn 0.9239 0.0000 0.3827
vn 0.8315 0.0000 0.5556
vn 0.8315 0.0000 0.5556
vn 0.7071 0.0000 0.7071
vn 0.7071 0.0000 0.7071
vn 0.5556 0.0000 0.8315
vn 0.5556 0.0000 0.8315
vn 0.3827 0.0000 0.9239
vn 0.3827 0.0000 0.9239
vn 0.1951 0.0000 0.9808
vn 0.1951 0.0000 0.9808
vn 0.0000 0.0000 1.0000
vn 0.0000 0.0000 1.0000
vn -0.1951 0.0000 0.9808
vn -0.1951 0.0000 0.9808
vn -0.3827 0.0000 0.9239
vn -0.3827 0.0000 0.9239
vn -0.5556 0.0000 0.8315
vn -0.5556 0.0000 0.8315
vn -0.7071 0.0000 0.7071
vn -0.7071 0.0000 0.7071
vn -0.8315 0.0000 0.5556
vn -0.8315 0.0000 0.5556
vn -0.9239 0.0000 0.3827
vn -0.9239 0.0000 0.3827
vn -0.9808 0.0000 0.1951
vn -0.9808 0.0000 0.1951
vn -1.0000 0.0000 0.0000
vn -1.0000 0.0000 0.0000
vn -0.9808 0.0000 -0.1951
vn -0.9808 0.0000 -0.1951
vn -0.9239 0.0000 -0.3827
vn -0.9239 0.0000 -0.3827
vn -0.8315 0.0000 -0.5556
vn -0.8315 0.0000 -0.5556
vn -0.7071 0.0000 -0.7071
vn -0.7071 0.0000 -0.7071
vn -0.5556 0.0000 -0.8315
vn -0.5556 0.0000 -0.8315
vn -0.3827 0.0000 -0.9239
vn -0.3827 0.0000 -0.9239
vn -0.1951 0.0000 -0.9808
vn -0.1951 0.0000 -0.9808
vn -0.0000 0.0000 -1.0000
vn -0.0000 0.0000 -1.0000
vn 0.1951 0.0000 -0.9808
vn 0.1951 0.0000 -0.9808
vn 0.3827 0.0000 -0.9239
vn 0.3827 0.0000 -0.9239
vn 0.5556 0.0000 -0.8315
vn 0.5556 0.0000 -0.8315
vn 0.7071 0.0000 -0.7071
vn 0.7071 0.0000 -0.7071
vn 0.8315 0.0000 -0.5556
vn 0.8315 0.0000 -0.5556
vn 0.9239 0.0000 -0.3827
vn 0.9239 0.0000 -0.3827
vn 0.9808 0.0000 -0.1951
vn 0.9808 0.0000 -0.1951
vn 1.0000 0.0000 -0.0000
vn 1.0000 0.0000 -0.0000
vn 0.0000 -1.0000 0.0000
vn 0.0000 -1.0000 0.0000
vn 0.0000 -1.0000 0.0000
vn 0.0000 -1.0000 0.0000
vn 0.0000 -1.0000 0.0000
vn 0.0000 -1.0000 0.0000
vn 0.0000 -1.0000 0.0000
vn 0.0000 -1.0000 0.0000
vn 0.0000 -1.0000 0.0000
vn 0.0000 -1.0000 0.0000
vn 0.0000 -1.0000 0.0000
vn 0.0000 -1.0000 0.0000
vn 0.0000 -1.0000 0.0000
vn 0.0000 -1.0000 0.0000
vn 0.0000 -1.0000 0.0000
vn 0.0000 -1.0000 0.0000
vn 0.0000 -1.0000 0.0000
vn 0.0000 -1.0000 0.0000
vn 0.0000 -1.0000 0.0000
vn 0.0000 -1.0000 0.0000
vn 0.0000 -1.0000 0.0000
vn 0.0000 -1.0000 0.0000
vn 0.0000 -1.0000 0.0000
vn 0.0000 -1.0000 0.0000
vn 0.0000 -1.0000 0.0000
vn 0.0000 -1.0000 0.0000
vn 0.0000 -1.0000 0.0000
vn 0.0000 -1.0000 0.0000
vn 0.0000 -1.0000 0.0000
vn 0.0000 -1.0000 0.0000
vn 0.0000 -1.0000 0.0000
vn 0.0000 -1.0000 0.0000
vn 0.0000 -1.0000 0.0000
vn 0.0000 1.0000 0.0000
vn 0.0000 1.0000 0.0000
vn 0.0000 1.0000 0.0000
vn 0.0000 1.0000 0.0000
vn 0.0000 1.0000 0.0000
vn 0.0000 1.0000 0.0000
vn 0.0000 1.0000 0.0000
vn 0.0000 1.0000 0.0000
vn 0.0000 1.0000 0.0000
vn 0.0000 1.0000 0.0000
vn 0.0000 1.0000 0.0000
vn 0.0000 1.0000 0.0000
vn 0.0000 1.0000 0.0000
vn 0.0000 1.0000 0.0000
vn 0.0000 1.0000 0.0000
vn 0.0000 1.0000 0.0000
vn 0.0000 1.0000 0.0000
vn 0.0000 1.0000 0.0000
vn 0.0000 1.0000 0.0000
vn 0.0000 1.0000 0.0000
vn 0.0000 1.0000 0.0000
vn 0.0000 1.0000 0.0000
vn 0.0000 1.0000 0.0000
vn 0.0000 1.0000 0.0000
vn 0.0000 1.0000 0.0000
vn 0.0000 1.0000 0.0000
vn 0.0000 1.0000 0.0000
vn 0.0000 1.0000 0.0000
vn 0.0000 1.0000 0.0000
vn 0.0000 1.0000 0.0000
vn 0.0000 1.0000 0.0000
vn 0.0000 1.0000 0.0000
vn 0.0000 1.0000 0.0000
usemtl ironcylinder_sides
f 1/1/1 2/2/2 4/4/4
f 1/1/1 4/4/4 3/3/3
f 3/3/3 4/4/4 6/6/6
f 3/3/3 6/6/6 5/5/5
f 5/5/5 6/6/6 8/8/8
f 5/5/5 8/8/8 7/7/7
f 7/7/7 8/8/8 10/10/10
f 7/7/7 10/10/10 9/9/9
f 9/9/9 10/10/10 12/12/12
f 9/9/9 12/12/12 11/11/11
f 11/11/11 12/12/12 14/14/14
f 11/11/11 14/14/14 13/13/13
f 13/13/13 14/14/14 16/16/16
f 13/13/13 16/16/16 15/15/15
f 15/15/15 16/16/16 18/18/18
f 15/15/15 18/18/18 17/17/17
f 17/17/17 18/18/18 20/20/20
f 17/17/17 20/20/20 19/19/19
f 19/19/19 20/20/20 22/22/22
f 19/19/19 22/22/22 21/21/21
f 21/21/21 22/22/22 24/24/24
f 21/21/21 24/24/24 23/23/23
f 23/23/23 24/24/24 26/26/26
f 23/23/23 26/26/26 25/25/25
f 25/25/25 26/26/26 28/28/28
f 25/25/25 28/28/28 27/27/27
f 27/27/27 28/28/28 30/30/30
f 27/27/27 30/30/30 29/29/29
f 29/29/29 30/30/30 32/32/32
f 29/29/29 32/32/32 31/31/31
f 31/31/31 32/32/32 34/34/34
f 31/31/31 34/34/34 33/33/33
f 33/33/33 34/34/34 36/36/36
f 33/33/33 36/36/36 35/35/35
f 35/35/35 36/36/36 38/38/38
f 35/35/35 38/38/38 37/37/37
f 37/37/37 38/38/38 40/40/40
f 37/37/37 40/40/40 39/39/39
f 39/39/39 40/40/40 42/42/42
f 39/39/39 42/42/42 41/41/41
f 41/41/41 42/42/42 44/44/44
f 41/41/41 44/44/44 43/43/43
f 43/43/43 44/44/44 46/46/46
f 43/43/43 46/46/46 45/45/45
f 45/45/45 46/46/46 48/48/48
f 45/45/45 48/48/48 47/47/47
f 47/47/47 48/48/48 50/50/50
f 47/47/47 50/50/50 49/49/49
f 49/49/49 50/50/50 52/52/52
f 49/49/49 52/52/52 51/51/51
f 51/51/51 52/52/52 54/54/54
f 51/51/51 54/54/54 53/53/53
f 53/53/53 54/54/54 56/56/56
f 53/53/53 56/56/56 55/55/55
f 55/55/55 56/56/56 58/58/58
f 55/55/55 58/58/58 57/57/57
f 57/57/57 58/58/58 60/60/60
f 57/57/57 60/60/60 59/59/59
f 59/59/59 60/60/60 62/62/62
f 59/59/59 62/62/62 61/61/61
f 61/61/61 62/62/62 64/64/64
f 61/61/61 64/64/64 63/63/63
f 63/63/63 64/64/64 66/66/66
f 63/63/63 66/66/66 65/65/65
usemtl ironcylinder_caps
f 67/67/67 68/68/68 69/69/69
f 67/67/67 69/69/69 70/70/70
f 67/67/67 70/70/70 71/71/71
f 67/67/67 71/71/71 72/72/72
f 67/67/67 72/72/72 73/73/73
f 67/67/67 73/73/73 74/74/74
f 67/67/67 74/74/74 75/75/75
f 67/67/67 75/75/75 76/76/76
f 67/67/67 76/76/76 77/77/77
f 67/67/67 77/77/77 78/78/78
f 67/67/67 78/78/78 79/79/79
f 67/67/67 79/79/79 80/80/80
f 67/67/67 80/80/80 81/81/81
f 67/67/67 81/81/81 82/82/82
f 67/67/67 82/82/82 83/83/83
f 67/67/67 83/83/83 84/84/84
f 67/67/67 84/84/84 85/85/85
f 67/67/67 85/85/85 86/86/86
f 67/67/67 86/86/86 87/87/87
f 67/67/67 87/87/87 88/88/88
f 67/67/67 88/88/88 89/89/89
f 67/67/67 89/89/89 90/90/90
f 67/67/67 90/90/90 91/91/91
f 67/67/67 91/91/91 92/92/92
f 67/67/67 92/92/92 93/93/93
f 67/67/67 93/93/93 94/94/94
f 67/67/67 94/94/94 95/95/95
f 67/67/67 95/95/95 96/96/96
f 67/67/67 96/96/96 97/97/97
f 67/67/67 97/97/97 98/98/98
f 67/67/67 98/98/98 99/99/99
f 67/67/67 99/99/99 68/68/68
f 100/100/100 102/102/102 101/101/101
f 100/100/100 103/103/103 102/102/102
f 100/100/100 104/104/104 103/103/103
f 100/100/100 105/105/105 104/104/104
f 100/100/100 106/106/106 105/105/105
f 100/100/100 107/107/107 106/106/106
f 100/100/100 108/108/108 107/107/107
f 100/100/100 109/109/109 108/108/108
f 100/100/100 110/110/110 109/109/109
f 100/100/100 111/111/111 110/110/110
f 100/100/100 112/112/112 111/111/111
f 100/100/100 113/113/113 112/112/112
f 100/100/100 114/114/114 113/113/113
f 100/100/100 115/115/115 114/114/114
f 100/100/100 116/116/116 115/115/115
f 100/100/100 117/117/117 116/116/116
f 100/100/100 118/118/118 117/117/117
f 100/100/100 119/119/119 118/118/118
f 100/100/100 120/120/120 119/119/119
f 100/100/100 121/121/121 120/120/120
f 100/100/100 122/122/122 121/121/121
f 100/100/100 123/123/123 122/122/122
f 100/100/100 124/124/124 123/123/123
f 100/100/100 125/125/125 124/124/124
f 100/100/100 126/126/126 125/125/125
f 100/100/100 127/127/127 126/126/126
f 100/100/100 128/128/128 127/127/127
f 100/100/100 129/129/129 128/128/128
f 100/100/100 130/130/130 129/129/129
f 100/100/100 131/131/131 130/130/130
f 100/100/100 132/132/132 131/131/131
f 100/100/100 101/101/101 132/132/132
